HIERARCHY
ROOT Hips
{
  OFFSET 5.84602e-005 68.8428 3.50346
  CHANNELS 6 Xposition Yposition Zposition Zrotation Xrotation Yrotation
  JOINT Spine
  {
    OFFSET 0 8.597 -4.6522
    CHANNELS 3 Zrotation Xrotation Yrotation
    JOINT Spine1
    {
      OFFSET 0 7.8454 0.4098
      CHANNELS 3 Zrotation Xrotation Yrotation
      JOINT Spine2
      {
        OFFSET 0 9.7078 -2.1609
        CHANNELS 3 Zrotation Xrotation Yrotation
        JOINT Neck
        {
          OFFSET 0 21.8761 -0.4549
          CHANNELS 3 Zrotation Xrotation Yrotation
          JOINT Head
          {
            OFFSET 0 12.3537 3.3602
            CHANNELS 3 Zrotation Xrotation Yrotation
            End Site
            {
              OFFSET 0.0001 18.9506 0.5657
            }
          }
        }
        JOINT LeftShoulder
        {
          OFFSET 2.2086 21.1115 7.2329
          CHANNELS 3 Zrotation Xrotation Yrotation
          JOINT LeftArm
          {
            OFFSET 13.1193 3.0282 -4.8998
            CHANNELS 3 Zrotation Xrotation Yrotation
            JOINT LeftForeArm
            {
              OFFSET 27.4081 -0.0973053 -0.2375
              CHANNELS 3 Zrotation Xrotation Yrotation
              JOINT LeftHand
              {
                OFFSET 22.8641 0.0662994 -0.1369
                CHANNELS 3 Zrotation Xrotation Yrotation
                JOINT LeftHandIndex1
                {
                  OFFSET 8.8614 0.775009 2.4612
                  CHANNELS 3 Zrotation Xrotation Yrotation
                  JOINT LeftHandIndex2
                  {
                    OFFSET 3.3146 -0.808304 0.5841
                    CHANNELS 3 Zrotation Xrotation Yrotation
                    JOINT LeftHandIndex3
                    {
                      OFFSET 2.2628 -0.552002 0.3989
                      CHANNELS 3 Zrotation Xrotation Yrotation
                      End Site
                      {
                        OFFSET 1.6102 -0.4807 0.2612
                      }
                    }
                  }
                }
                JOINT LeftHandMiddle1
                {
                  OFFSET 8.9937 0.895004 0.2143
                  CHANNELS 3 Zrotation Xrotation Yrotation
                  JOINT LeftHandMiddle2
                  {
                    OFFSET 4.0984 0.0113983 -0.0242
                    CHANNELS 3 Zrotation Xrotation Yrotation
                    JOINT LeftHandMiddle3
                    {
                      OFFSET 2.2716 0.00689697 -0.0138001
                      CHANNELS 3 Zrotation Xrotation Yrotation
                      End Site
                      {
                        OFFSET 2.0404 -0.1441 0.0027
                      }
                    }
                  }
                }
                JOINT LeftHandRing1
                {
                  OFFSET 8.5234 0.597198 -2.0164
                  CHANNELS 3 Zrotation Xrotation Yrotation
                  JOINT LeftHandRing2
                  {
                    OFFSET 3.7188 -0.188293 -0.2328
                    CHANNELS 3 Zrotation Xrotation Yrotation
                    JOINT LeftHandRing3
                    {
                      OFFSET 2.1191 -0.106598 -0.1332
                      CHANNELS 3 Zrotation Xrotation Yrotation
                      End Site
                      {
                        OFFSET 1.8737 -0.2304 -0.0886
                      }
                    }
                  }
                }
                JOINT LeftHandPinky1
                {
                  OFFSET 7.9094 -0.601089 -3.4825
                  CHANNELS 3 Zrotation Xrotation Yrotation
                  JOINT LeftHandPinky2
                  {
                    OFFSET 2.2874 -0.477005 -0.6314
                    CHANNELS 3 Zrotation Xrotation Yrotation
                    JOINT LeftHandPinky3
                    {
                      OFFSET 1.6774 -0.349396 -0.4633
                      CHANNELS 3 Zrotation Xrotation Yrotation
                      End Site
                      {
                        OFFSET 1.4888 -0.4091 -0.3416
                      }
                    }
                  }
                }
                JOINT LeftHandThumb1
                {
                  OFFSET 1.833 -1.3875 1.3896
                  CHANNELS 3 Zrotation Xrotation Yrotation
                  JOINT LeftHandThumb2
                  {
                    OFFSET 3.4129 -1.121 2.5732
                    CHANNELS 3 Zrotation Xrotation Yrotation
                    JOINT LeftHandThumb3
                    {
                      OFFSET 2.2474 -0.804199 1.6192
                      CHANNELS 3 Zrotation Xrotation Yrotation
                      End Site
                      {
                        OFFSET 1.6527 -0.5689 1.1317
                      }
                    }
                  }
                }
              }
            }
          }
        }
        JOINT RightShoulder
        {
          OFFSET -2.2086 21.1115 7.2329
          CHANNELS 3 Zrotation Xrotation Yrotation
          JOINT RightArm
          {
            OFFSET -13.1216 3.0287 -4.9007
            CHANNELS 3 Zrotation Xrotation Yrotation
            JOINT RightForeArm
            {
              OFFSET -27.4081 -0.0973053 -0.2375
              CHANNELS 3 Zrotation Xrotation Yrotation
              JOINT RightHand
              {
                OFFSET -22.8641 0.0664063 -0.1369
                CHANNELS 3 Zrotation Xrotation Yrotation
                JOINT RightHandIndex1
                {
                  OFFSET -8.8614 0.774994 2.4612
                  CHANNELS 3 Zrotation Xrotation Yrotation
                  JOINT RightHandIndex2
                  {
                    OFFSET -3.3146 -0.808304 0.5841
                    CHANNELS 3 Zrotation Xrotation Yrotation
                    JOINT RightHandIndex3
                    {
                      OFFSET -2.2628 -0.552002 0.3989
                      CHANNELS 3 Zrotation Xrotation Yrotation
                      End Site
                      {
                        OFFSET -1.6102 -0.4807 0.2612
                      }
                    }
                  }
                }
                JOINT RightHandMiddle1
                {
                  OFFSET -8.9937 0.894989 0.2143
                  CHANNELS 3 Zrotation Xrotation Yrotation
                  JOINT RightHandMiddle2
                  {
                    OFFSET -4.0984 0.0113983 -0.0242
                    CHANNELS 3 Zrotation Xrotation Yrotation
                    JOINT RightHandMiddle3
                    {
                      OFFSET -2.2716 0.00691223 -0.0138001
                      CHANNELS 3 Zrotation Xrotation Yrotation
                      End Site
                      {
                        OFFSET -2.0404 -0.1441 0.0027
                      }
                    }
                  }
                }
                JOINT RightHandRing1
                {
                  OFFSET -8.5234 0.597198 -2.0164
                  CHANNELS 3 Zrotation Xrotation Yrotation
                  JOINT RightHandRing2
                  {
                    OFFSET -3.7188 -0.188309 -0.2328
                    CHANNELS 3 Zrotation Xrotation Yrotation
                    JOINT RightHandRing3
                    {
                      OFFSET -2.1191 -0.106598 -0.1332
                      CHANNELS 3 Zrotation Xrotation Yrotation
                      End Site
                      {
                        OFFSET -1.8737 -0.2304 -0.0886
                      }
                    }
                  }
                }
                JOINT RightHandPinky1
                {
                  OFFSET -7.9094 -0.601105 -3.4825
                  CHANNELS 3 Zrotation Xrotation Yrotation
                  JOINT RightHandPinky2
                  {
                    OFFSET -2.2874 -0.477005 -0.6314
                    CHANNELS 3 Zrotation Xrotation Yrotation
                    JOINT RightHandPinky3
                    {
                      OFFSET -1.6774 -0.349396 -0.4633
                      CHANNELS 3 Zrotation Xrotation Yrotation
                      End Site
                      {
                        OFFSET -1.4888 -0.4091 -0.3416
                      }
                    }
                  }
                }
                JOINT RightHandThumb1
                {
                  OFFSET -1.833 -1.38751 1.3896
                  CHANNELS 3 Zrotation Xrotation Yrotation
                  JOINT RightHandThumb2
                  {
                    OFFSET -3.41299 -1.12099 2.5732
                    CHANNELS 3 Zrotation Xrotation Yrotation
                    JOINT RightHandThumb3
                    {
                      OFFSET -2.24741 -0.804108 1.6192
                      CHANNELS 3 Zrotation Xrotation Yrotation
                      End Site
                      {
                        OFFSET -1.6527 -0.5689 1.1317
                      }
                    }
                  }
                }
              }
            }
          }
        }
      }
    }
  }
  JOINT RightUpLeg
  {
    OFFSET -9.1966 3.8861 -0.7581
    CHANNELS 3 Zrotation Xrotation Yrotation
    JOINT RightLeg
    {
      OFFSET -0.7359 -41.0265 0
      CHANNELS 3 Zrotation Xrotation Yrotation
      JOINT RightFoot
      {
        OFFSET 0 -40.2855 0
        CHANNELS 3 Zrotation Xrotation Yrotation
        JOINT RightToeBase
        {
          OFFSET 0 -5.6122 11.7359
          CHANNELS 3 Zrotation Xrotation Yrotation
          End Site
          {
            OFFSET 0 0 7.8731
          }
        }
      }
    }
  }
  JOINT LeftUpLeg
  {
    OFFSET 9.1965 3.8864 -0.7581
    CHANNELS 3 Zrotation Xrotation Yrotation
    JOINT LeftLeg
    {
      OFFSET 0.7359 -41.0268 0
      CHANNELS 3 Zrotation Xrotation Yrotation
      JOINT LeftFoot
      {
        OFFSET 0 -40.2855 0
        CHANNELS 3 Zrotation Xrotation Yrotation
        JOINT LeftToeBase
        {
          OFFSET 0 -5.6122 11.7359
          CHANNELS 3 Zrotation Xrotation Yrotation
          End Site
          {
            OFFSET 0 0 7.8731
          }
        }
      }
    }
  }
}
MOTION
Frames:	4
Frame Time:	0.0333333
5.84602e-005 68.8428 3.50346 0 0 -0 0 0 -0 0 0 -0 0 0 -0 0 0 -0 0 0 -0 0 0 -0 0 0 -0 0 0 -0 0 0 -0 0 0 -0 0 0 -0 0 0 -0 0 0 -0 -0.0146107 -8.87603e-005 -2.63497e-007 2.99804e-018 -2.42657e-020 -1.42182e-022 0 0 -0 -0.0187562 -0.001176 5.858e-005 5.06224e-018 3.88251e-019 1.21329e-020 0 0 -0 -0.012269 -0.00324817 0.000675346 -1.74678e-018 3.88251e-019 -0 0 0 -0 0 0 -0 0 0 -0 0 0 -0 0 0 -0 0 0 -0 0 0 -0 0 0 -0 0 0 -0 0 0 -0 0 0 -0 0.0149955 -9.10982e-005 2.64101e-007 -9.69331e-018 1.21329e-020 -4.7394e-023 0 0 -0 0.0189956 -0.00119102 -5.96516e-005 -5.41541e-019 0 2.42657e-020 0 0 -0 0.0122698 -0.00324857 -0.000673756 -2.00796e-019 0 -1.94126e-019 0 0 -0 0 0 -0 0 0 -0 3.39842 1.33031 -0.0637918 -5.65207e-008 0.834868 -0.000436188 -3.39935 -2.16518 -0.0642563 -8.89002e-024 -1.18485e-023 -1.48106e-024 -3.39844 1.35642 0.0640283 -3.18788e-007 0.782166 -0.000588827 3.39931 -2.13858 0.0634662 1.1399e-023 0 -0 
-5.86334 27.6505 -0.351542 -3.28563e-015 28.0015 180 -0.909568 3.85658 -0.238313 -1.80918 7.71643 -0.416495 -1.80918 7.71645 -0.416494 -1.08284e-005 -0.281473 -5.75237e-006 0.135755 -0.459534 0.278563 -25.9665 -9.11992 -26.1614 -10.6232 -21.6495 -22.3995 -18.8046 5.84611 -34.0192 -51.5971 -7.21728 6.68805 -5.87046e-007 3.89559e-007 4.77409e-007 9.54166e-015 3.18055e-015 2.98177e-015 1.17409e-006 -7.79118e-007 -9.54818e-007 -5.87046e-007 3.89559e-007 4.77409e-007 -0.0146134 -8.70755e-005 2.14131e-006 1.17411e-006 -7.78997e-007 -9.54918e-007 -5.87046e-007 3.89559e-007 4.77409e-007 -0.0187613 -0.00116982 6.20327e-005 1.17411e-006 -7.78961e-007 -9.54957e-007 -5.87046e-007 3.89559e-007 4.77409e-007 -0.0123254 -0.00326453 0.000679356 1.17408e-006 -7.79019e-007 -9.54936e-007 -5.87046e-007 3.89559e-007 4.77409e-007 9.54166e-015 3.18055e-015 2.98177e-015 1.17409e-006 -7.79118e-007 -9.54818e-007 15.9916 -0.827842 28.9563 15.4461 -16.0727 42.8546 14.5923 4.63237 35.6547 33.2489 -9.67587 29.1224 -3.11695e-007 -9.15662e-007 3.63298e-006 5.75043e-006 8.83545e-007 1.22531e-006 9.31719e-007 2.40767e-006 1.79921e-006 -3.11695e-007 -9.15662e-007 3.63298e-006 0.0149256 -8.33044e-005 7.05606e-006 9.30932e-007 2.40791e-006 1.79889e-006 -3.11695e-007 -9.15662e-007 3.63298e-006 0.0189245 -0.00117988 -5.75457e-005 9.30736e-007 2.40803e-006 1.7988e-006 -3.11695e-007 -9.15662e-007 3.63298e-006 0.0124385 -0.00328754 -0.000686008 8.88983e-007 6.07216e-007 1.09566e-006 -3.11695e-007 -9.15662e-007 3.63298e-006 5.75043e-006 8.83545e-007 1.22531e-006 9.31719e-007 2.40767e-006 1.79921e-006 -90.1226 -40.6571 -65.0944 -177.306 62.1804 -140.685 10.3277 33.0987 -45.4526 1.43735e-007 3.36966e-006 5.78456e-007 91.7872 -37.8424 64.5932 177.467 66.7874 140.155 -11.5411 37.0866 42.5529 1.40243e-006 -7.20346e-007 6.55614e-007 
-5.86298 27.4626 -0.236567 -3.15411e-015 28.8321 180 -0.912025 4.25469 -0.224796 -1.81479 8.51241 -0.383024 -1.81479 8.5124 -0.383025 -3.91682e-006 -0.558889 6.50461e-006 0.19114 -0.926404 0.583201 -25.4215 -10.2222 -26.173 -10.6849 -21.6413 -22.7246 -19.0194 5.99551 -34.5246 -51.4679 -8.00539 6.41137 5.86831e-007 -3.89729e-007 -4.77338e-007 7.35689e-007 1.0571e-006 3.302e-006 -1.17366e-006 7.79458e-007 9.54676e-007 5.86831e-007 -3.89729e-007 -4.77338e-007 -0.014617 -8.86037e-005 -3.2254e-006 -1.17368e-006 7.79337e-007 9.54776e-007 5.86831e-007 -3.89729e-007 -4.77338e-007 -0.0187117 -0.00117828 6.55347e-005 -1.17367e-006 7.79302e-007 9.54815e-007 5.86831e-007 -3.89729e-007 -4.77338e-007 -0.0122699 -0.00324701 0.00067942 -1.17365e-006 7.79359e-007 9.54794e-007 5.86831e-007 -3.89729e-007 -4.77338e-007 7.35689e-007 1.0571e-006 3.302e-006 -1.17366e-006 7.79458e-007 9.54676e-007 15.9214 -2.91241 28.3386 15.4461 -16.0727 42.8546 15.1695 5.07831 37.5172 33.2035 -11.3233 28.2835 1.10066e-007 1.83777e-006 6.85322e-007 -6.57022e-007 1.28575e-007 1.71456e-006 -3.18055e-015 -9.54166e-015 -0 1.10066e-007 1.83777e-006 6.85322e-007 0.0150167 -9.42598e-005 6.96426e-006 3.18055e-015 1.27222e-014 3.18055e-015 1.10066e-007 1.83777e-006 6.85322e-007 0.0190044 -0.00118963 -5.88597e-005 -3.18055e-015 -6.36111e-015 -0 1.10066e-007 1.83777e-006 6.85322e-007 0.012205 -0.00323026 -0.000668569 -1.08535e-007 -1.83825e-006 -6.85208e-007 1.10066e-007 1.83777e-006 6.85322e-007 -6.57022e-007 1.28575e-007 1.71456e-006 -3.18055e-015 -9.54166e-015 -0 -91.1992 -40.6546 -65.786 -177.255 61.5598 -140.807 9.96342 33.8786 -45.3645 -1.78163e-006 2.36328e-006 -3.30484e-007 92.5064 -38.2445 65.1335 177.439 66.407 140.229 -11.7808 38.1011 42.9342 9.78033e-007 -6.4816e-009 1.92434e-007 
-5.86257 27.2754 -0.120492 -3.02026e-015 29.6642 180 -0.913984 4.65338 -0.211252 -1.81974 9.30953 -0.349456 -1.81974 9.30953 -0.349456 -2.54937e-005 -0.836361 8.71564e-006 0.249118 -1.39376 0.888859 -24.8737 -11.3264 -26.1739 -10.7466 -21.6327 -23.0498 -19.233 6.14686 -35.0298 -51.3421 -8.79482 6.13571 5.86645e-007 -3.89904e-007 -4.77249e-007 -5.86645e-007 3.89904e-007 4.77249e-007 5.86645e-007 -3.89904e-007 -4.77249e-007 5.86645e-007 -3.89904e-007 -4.77249e-007 -0.0146107 -8.73973e-005 -1.27609e-006 1.30867e-006 -1.09024e-006 1.18416e-006 5.86645e-007 -3.89904e-007 -4.77249e-007 -0.0187568 -0.00117515 5.7846e-005 5.86651e-007 -3.89826e-007 -4.77319e-007 5.86645e-007 -3.89904e-007 -4.77249e-007 -0.012271 -0.00324512 0.000671674 5.86636e-007 -3.89855e-007 -4.77308e-007 5.86645e-007 -3.89904e-007 -4.77249e-007 -5.86645e-007 3.89904e-007 4.77249e-007 5.86645e-007 -3.89904e-007 -4.77249e-007 15.8278 -5.00844 27.7131 15.4461 -16.0727 42.8546 15.7352 5.54517 39.3862 33.1327 -12.9769 27.4344 9.54166e-015 -3.18055e-015 1.27222e-014 6.04715e-006 1.79356e-006 -2.42259e-006 2.72308e-006 -5.10178e-008 2.41793e-006 9.54166e-015 -3.18055e-015 1.27222e-014 0.0149774 -8.53033e-005 -3.25515e-006 2.89267e-006 1.82201e-006 3.08747e-006 9.54166e-015 -3.18055e-015 1.27222e-014 0.019009 -0.00118358 -6.16026e-005 2.7233e-006 -5.06272e-008 2.41791e-006 9.54166e-015 -3.18055e-015 1.27222e-014 0.0123385 -0.00325973 -0.000678253 2.72327e-006 -5.07741e-008 2.41785e-006 9.54166e-015 -3.18055e-015 1.27222e-014 6.04715e-006 1.79356e-006 -2.42259e-006 2.72308e-006 -5.10178e-008 2.41793e-006 -92.2766 -40.6428 -66.4787 -177.206 60.9384 -140.927 9.59363 34.6586 -45.2696 8.93823e-007 1.15609e-006 3.82032e-006 93.2356 -38.642 65.6844 177.413 66.0264 140.302 -12.0332 39.1164 43.3273 1.6656e-006 -8.54344e-007 7.79255e-007 
